<svg version="1.1" id="Layer_1" xmlns="http://www.w3.org/2000/svg" xmlns:xlink="http://www.w3.org/1999/xlink" x="0px" y="0px"
	 width="100%" viewBox="0 0 2757 2757" enable-background="new 0 0 2757 2757" xml:space="preserve">
<path fill="#414748" opacity="1.000000" stroke="none" 
	d="
M2.000024,2654.000000 
	C2.000000,1807.934570 2.000000,961.869080 2.001000,114.141502 
	C3.438872,110.042885 5.366688,107.768951 6.235714,105.144432 
	C13.870729,82.086189 26.331577,61.890396 43.525440,44.951496 
	C62.205105,26.548824 84.411293,13.716719 109.867996,6.760979 
	C114.654907,5.453013 119.293152,3.600974 124.000000,2.000000 
	C960.065430,2.000000 1796.130859,2.000000 2633.374023,2.732683 
	C2639.646484,4.537837 2644.847900,5.251939 2649.818604,6.737956 
	C2701.853760,22.293503 2737.029053,55.535519 2754.106934,107.266411 
	C2756.952881,115.886528 2758.079102,125.074440 2760.000000,134.000000 
	C2760.000000,968.065430 2760.000000,1802.130859 2759.270020,2637.401855 
	C2758.107422,2641.546875 2757.939209,2644.554688 2757.202637,2647.416260 
	C2744.889648,2695.244141 2716.810303,2730.036621 2671.607178,2750.577881 
	C2664.454590,2753.828125 2657.204834,2756.864746 2650.000000,2760.000000 
	C1803.934570,2760.000000 957.869080,2760.000000 110.512680,2759.401611 
	C108.316940,2758.391846 107.442375,2757.886963 106.502815,2757.582764 
	C58.686581,2742.096924 25.555422,2711.151855 7.677333,2664.009033 
	C6.333188,2660.464600 3.917568,2657.326904 2.000024,2654.000000 
M2048.585693,1338.303589 
	C2048.585693,1338.303589 2048.531250,1338.200439 2049.272217,1337.197021 
	C2049.517578,1335.570557 2049.762695,1333.944092 2050.622803,1330.920166 
	C2056.468262,1305.329468 2062.532471,1279.786133 2068.062500,1254.127441 
	C2070.640869,1242.163330 2072.183594,1229.976074 2074.188232,1216.287354 
	C2074.640381,1214.156860 2075.167969,1212.039062 2075.529785,1209.893188 
	C2076.312988,1205.247314 2077.011230,1200.586914 2077.960938,1194.349487 
	C2079.413574,1188.634155 2081.181396,1182.977051 2082.253174,1177.191162 
	C2084.480225,1165.166748 2086.444336,1153.090332 2088.325439,1141.005615 
	C2091.720459,1119.194702 2095.354980,1097.411255 2098.192871,1075.526001 
	C2101.859619,1047.249756 2105.257324,1018.924622 2107.987549,990.545227 
	C2110.119873,968.381470 2111.057617,946.102905 2113.024658,923.675110 
	C2113.283203,923.299683 2113.220215,922.988342 2113.276611,920.835205 
	C2113.276611,912.921875 2113.276611,905.008545 2113.276611,896.785156 
	C2112.000000,896.454895 2110.772217,896.038025 2109.509766,895.825745 
	C2093.534912,893.139160 2077.443848,891.010071 2061.605713,887.677856 
	C2043.575806,883.884583 2025.734375,879.163818 2007.877808,874.585876 
	C1992.182861,870.562134 1976.388550,866.778992 1960.967529,861.857361 
	C1859.365967,829.431091 1764.982056,782.203247 1676.932373,722.205078 
	C1571.205811,650.161743 1479.589722,562.950806 1399.496948,463.406158 
	C1396.010254,459.072632 1392.478149,454.775635 1388.021118,449.299408 
	C1214.008667,650.963806 1004.962646,798.649597 748.599487,875.493652 
	C748.419312,879.121155 747.695679,882.480042 748.194275,885.646484 
	C750.085510,897.657104 752.383301,909.603516 754.508667,921.577515 
	C758.098267,941.800232 761.144653,962.136536 765.366760,982.226013 
	C773.236023,1019.669434 781.020508,1057.160889 790.285522,1094.271606 
	C798.176270,1125.877319 808.096924,1156.976196 817.336731,1189.867432 
	C822.812134,1206.565430 828.026794,1223.354980 833.837219,1239.935547 
	C839.503052,1256.103516 845.777710,1272.057861 851.862244,1289.618164 
	C859.631470,1309.262207 867.106628,1329.029419 875.257996,1348.513672 
	C882.512268,1365.853760 890.515503,1382.880493 898.332153,1401.464600 
	C902.335388,1410.177124 906.054077,1419.034180 910.393677,1427.575806 
	C925.065918,1456.455200 939.958435,1485.222900 955.107727,1515.296875 
	C958.103577,1520.822266 960.906189,1526.463135 964.127502,1531.853638 
	C980.560242,1559.352417 997.101196,1586.786499 1014.042480,1615.556519 
	C1034.269653,1645.049072 1054.496948,1674.541748 1075.209595,1705.211182 
	C1093.741455,1729.394165 1112.220703,1753.617676 1130.846802,1777.727905 
	C1134.863770,1782.927734 1139.409180,1787.719116 1144.212036,1793.897583 
	C1167.163696,1819.885132 1190.115356,1845.872803 1213.647095,1872.937988 
	C1238.149292,1898.038086 1262.633179,1923.156250 1287.179565,1948.213013 
	C1289.932007,1951.022705 1293.039551,1953.484497 1296.612915,1957.272339 
	C1313.520874,1973.112061 1330.428833,1988.951782 1347.336792,2004.791626 
	C1341.611694,2002.840576 1336.549194,1999.933716 1331.780273,1996.605957 
	C1312.455200,1983.121704 1293.220215,1969.508179 1273.172241,1954.815063 
	C1261.359009,1946.117310 1249.261719,1937.775757 1237.799805,1928.637451 
	C1221.001221,1915.244263 1204.657471,1901.280396 1187.503784,1886.411377 
	C1173.105103,1873.628540 1158.575073,1860.989868 1144.343750,1848.023315 
	C1129.383057,1834.392090 1114.708252,1820.447144 1099.177979,1805.467896 
	C1090.175537,1796.640015 1080.847534,1788.116699 1072.240479,1778.918823 
	C1055.925781,1761.483643 1040.024658,1743.661621 1023.481445,1724.755371 
	C1008.266785,1706.383545 992.964050,1688.083740 977.871521,1669.612061 
	C969.291260,1659.110596 961.054932,1648.328003 951.898865,1636.512329 
	C950.964478,1635.571045 949.858398,1634.747314 949.121216,1633.671021 
	C936.594360,1615.380249 924.035706,1597.110474 911.645813,1578.727051 
	C901.049072,1563.004150 890.657593,1547.143066 879.482605,1530.190186 
	C872.315918,1517.935791 864.989807,1505.771240 858.016296,1493.407837 
	C844.180481,1468.878174 830.539124,1444.239014 816.551575,1418.739990 
	C816.551575,1418.739990 815.892761,1418.060791 815.777222,1416.778442 
	C815.225464,1416.145996 814.673706,1415.513672 813.999023,1413.530884 
	C809.347412,1404.027710 804.549316,1394.592896 800.073303,1385.007690 
	C788.988159,1361.269165 778.050293,1337.462036 766.760315,1312.374268 
	C766.350708,1311.585205 765.941101,1310.796265 765.477539,1308.969238 
	C765.028564,1308.461914 764.579590,1307.954590 764.065796,1305.997803 
	C758.505310,1292.021484 752.876221,1278.072021 747.397217,1264.063843 
	C730.946106,1222.003418 716.029480,1179.387085 703.985596,1135.868164 
	C693.130554,1096.645020 683.535889,1057.073242 673.491516,1016.154602 
	C671.420471,1006.577881 669.349365,997.001160 667.388733,985.933533 
	C665.645691,979.336853 663.897156,972.741577 662.194885,966.134399 
	C662.156799,965.986389 662.613525,965.621765 662.899109,965.508606 
	C663.114014,965.423462 663.424438,965.579346 663.653320,965.620850 
	C664.596985,972.924805 665.538940,980.215820 665.996094,989.332886 
	C666.754517,997.861938 667.424500,1006.400085 668.292297,1014.917969 
	C669.584473,1027.601807 670.747559,1040.307495 672.453552,1052.937988 
	C674.850098,1070.680786 677.694092,1088.362915 680.127380,1107.666626 
	C681.311584,1112.465332 682.722229,1117.221558 683.633728,1122.071533 
	C685.647705,1132.787476 687.219604,1143.588013 689.310547,1154.287842 
	C696.190979,1189.496826 702.829956,1224.760254 710.324585,1259.839722 
	C715.936157,1286.105347 722.724670,1312.119629 729.218994,1339.678467 
	C729.563293,1341.308594 729.843384,1342.955322 730.261108,1344.566406 
	C756.616760,1446.240967 789.207947,1545.853149 829.095520,1643.045288 
	C831.736267,1649.479858 834.799438,1655.740967 837.875854,1663.563965 
	C862.291138,1722.906006 889.746033,1780.824951 919.749084,1837.530029 
	C929.838684,1856.599121 940.604980,1875.310425 951.492615,1895.607300 
	C966.845398,1921.573730 981.881531,1947.734619 997.655090,1973.442871 
	C1009.468323,1992.696167 1022.231384,2011.366821 1035.120239,2031.655029 
	C1054.097534,2058.839600 1072.863159,2086.175781 1092.139282,2113.146729 
	C1102.138672,2127.137939 1113.040894,2140.483643 1123.993652,2155.431396 
	C1142.623169,2178.581543 1160.949585,2201.984375 1179.979004,2224.801025 
	C1195.034546,2242.852783 1210.953125,2260.184570 1227.059692,2279.007324 
	C1276.726318,2334.476562 1329.134033,2387.190674 1384.439209,2437.272217 
	C1387.897461,2434.421143 1390.569336,2432.441162 1392.988525,2430.189697 
	C1422.938110,2402.316895 1453.340088,2374.906006 1482.617065,2346.342041 
	C1505.689697,2323.831299 1527.364380,2299.887695 1550.691772,2275.937500 
	C1564.235107,2260.812988 1578.059570,2245.928955 1591.251587,2230.503906 
	C1608.228271,2210.653809 1624.780762,2190.438477 1641.317261,2170.217773 
	C1644.739502,2166.033203 1647.290649,2161.136230 1651.570801,2156.182129 
	C1653.792114,2153.772949 1656.265625,2151.549316 1658.195557,2148.925781 
	C1676.990479,2123.374268 1695.830811,2097.854492 1714.370483,2072.118164 
	C1724.661499,2057.832275 1734.407593,2043.153687 1745.503906,2027.849487 
	C1779.216553,1978.202759 1810.100342,1926.838867 1839.764282,1873.285645 
	C1853.152466,1848.008423 1867.132080,1823.022705 1879.774414,1797.377808 
	C1894.569214,1767.366211 1908.198730,1736.780273 1923.329956,1705.451782 
	C1948.280396,1650.777832 1970.394775,1594.936401 1989.635376,1538.045166 
	C2005.171509,1492.106812 2019.108765,1445.617798 2033.170898,1399.196045 
	C2038.455200,1381.751953 2042.091797,1363.808716 2046.785034,1345.593140 
	C2046.785034,1345.593140 2046.585083,1345.042480 2047.482788,1343.925049 
	C2047.823853,1342.079590 2048.164795,1340.234131 2048.585693,1338.303589 
z"/>
<path fill="#FEFDFD" opacity="1.000000" stroke="none" 
	d="
M2760.000000,133.062683 
	C2758.079102,125.074440 2756.952881,115.886528 2754.106934,107.266411 
	C2737.029053,55.535519 2701.853760,22.293503 2649.818604,6.737956 
	C2644.847900,5.251939 2639.646484,4.537837 2634.275879,2.732683 
	C2675.857178,2.000000 2717.714111,2.000000 2760.000000,2.000000 
	C2760.000000,45.374180 2760.000000,88.749771 2760.000000,133.062683 
z"/>
<path fill="#FEFDFD" opacity="1.000000" stroke="none" 
	d="
M123.062683,2.000000 
	C119.293152,3.600974 114.654907,5.453013 109.867996,6.760979 
	C84.411293,13.716719 62.205105,26.548824 43.525440,44.951496 
	C26.331577,61.890396 13.870729,82.086189 6.235714,105.144432 
	C5.366688,107.768951 3.438872,110.042885 2.001000,113.239693 
	C2.000000,76.806808 2.000000,39.613617 2.000000,2.000000 
	C42.040810,2.000000 82.083084,2.000000 123.062683,2.000000 
z"/>
<path fill="#FEFDFD" opacity="1.000000" stroke="none" 
	d="
M2650.937256,2760.000000 
	C2657.204834,2756.864746 2664.454590,2753.828125 2671.607178,2750.577881 
	C2716.810303,2730.036621 2744.889648,2695.244141 2757.202637,2647.416260 
	C2757.939209,2644.554688 2758.107422,2641.546875 2759.270020,2638.303711 
	C2760.000000,2678.512695 2760.000000,2719.025391 2760.000000,2760.000000 
	C2723.959473,2760.000000 2687.916992,2760.000000 2650.937256,2760.000000 
z"/>
<path fill="#FEFDFD" opacity="1.000000" stroke="none" 
	d="
M2.000024,2654.937256 
	C3.917568,2657.326904 6.333188,2660.464600 7.677333,2664.009033 
	C25.555422,2711.151855 58.686581,2742.096924 106.502815,2757.582764 
	C107.442375,2757.886963 108.316940,2758.391846 109.610870,2759.401611 
	C74.147804,2760.000000 38.295609,2760.000000 2.000000,2760.000000 
	C2.000000,2725.292725 2.000000,2690.583740 2.000024,2654.937256 
z"/>
<path fill="#FDFE5D" opacity="1.000000" stroke="none" 
	d="
M2112.525879,923.875305 
	C2111.057617,946.102905 2110.119873,968.381470 2107.987549,990.545227 
	C2105.257324,1018.924622 2101.859619,1047.249756 2098.192871,1075.526001 
	C2095.354980,1097.411255 2091.720459,1119.194702 2088.325439,1141.005615 
	C2086.444336,1153.090332 2084.480225,1165.166748 2082.253174,1177.191162 
	C2081.181396,1182.977051 2079.413574,1188.634155 2077.202637,1194.931519 
	C2071.333740,1188.522827 2064.148193,1187.890259 2056.133789,1187.892578 
	C1647.456665,1188.014771 1238.779419,1187.999268 830.102295,1188.012817 
	C825.774719,1188.012939 821.447144,1188.199707 817.119568,1188.299316 
	C808.096924,1156.976196 798.176270,1125.877319 790.285522,1094.271606 
	C781.020508,1057.160889 773.236023,1019.669434 765.366760,982.226013 
	C761.144653,962.136536 758.098267,941.800232 754.508667,921.577515 
	C752.383301,909.603516 750.085510,897.657104 748.194275,885.646484 
	C747.695679,882.480042 748.419312,879.121155 748.599487,875.493652 
	C1004.962646,798.649597 1214.008667,650.963806 1388.021118,449.299408 
	C1392.478149,454.775635 1396.010254,459.072632 1399.496948,463.406158 
	C1479.589722,562.950806 1571.205811,650.161743 1676.932373,722.205078 
	C1764.982056,782.203247 1859.365967,829.431091 1960.967529,861.857361 
	C1976.388550,866.778992 1992.182861,870.562134 2007.877808,874.585876 
	C2025.734375,879.163818 2043.575806,883.884583 2061.605713,887.677856 
	C2077.443848,891.010071 2093.534912,893.139160 2109.509766,895.825745 
	C2110.772217,896.038025 2112.000000,896.454895 2113.276611,896.785156 
	C2113.276611,905.008545 2113.276611,912.921875 2112.915527,921.943542 
	C2112.554443,923.051880 2112.525879,923.875305 2112.525879,923.875305 
M1727.908081,802.846741 
	C1727.424683,802.963867 1726.941406,803.080933 1726.458008,803.198120 
	C1726.905151,803.526794 1727.352417,803.855530 1728.366577,804.999023 
	C1729.204468,804.955505 1730.042480,804.911926 1730.880371,804.868347 
	C1730.055054,804.434021 1729.229736,803.999756 1727.908081,802.846741 
M1036.103516,797.644714 
	C1034.096436,799.115051 1032.089355,800.585449 1029.443115,802.186829 
	C1029.606201,802.093628 1029.769165,802.000427 1031.295532,802.021667 
	C1033.653320,800.796021 1036.011230,799.570374 1039.198608,797.909119 
	C1039.121826,797.431274 1039.045044,796.953491 1038.968140,796.475708 
	C1038.429565,796.758240 1037.890991,797.040710 1036.103516,797.644714 
M1120.901611,741.935669 
	C1094.723755,759.367188 1068.545898,776.798767 1042.367920,794.230286 
	C1042.831909,794.986145 1043.295898,795.742065 1043.759888,796.497925 
	C1161.598877,735.593689 1278.061523,672.330444 1386.503662,594.060669 
	C1436.811646,635.865540 1490.345337,673.094360 1546.133545,707.072937 
	C1618.913086,751.400452 1705.154907,797.098572 1719.814453,798.370850 
	C1678.288330,770.970154 1637.978394,741.933105 1599.456909,710.466980 
	C1560.451050,678.605347 1523.363037,644.656372 1487.883179,608.920776 
	C1452.700073,573.483887 1419.565918,536.203125 1387.743896,496.668854 
	C1384.804321,499.342651 1382.502563,501.143005 1380.543945,503.260712 
	C1339.579468,547.553345 1297.506470,590.737793 1253.454590,631.993530 
	C1211.819458,670.985840 1168.488892,707.892029 1120.901611,741.935669 
M1024.667969,804.958191 
	C1024.667969,804.958191 1025.165771,805.196899 1025.165771,805.196899 
	C1025.165771,805.196899 1025.065308,804.697754 1024.667969,804.958191 
M1722.414673,800.953064 
	C1722.783447,800.981018 1723.152100,801.008972 1723.520874,801.036926 
	C1723.349731,800.850159 1723.178467,800.663330 1722.414673,800.953064 
z"/>
<path fill="#E8FC76" opacity="1.000000" stroke="none" 
	d="
M898.188293,1400.045532 
	C890.515503,1382.880493 882.512268,1365.853760 875.257996,1348.513672 
	C867.106628,1329.029419 859.631470,1309.262207 852.773926,1288.835083 
	C855.352051,1288.036255 857.018555,1288.006714 858.684998,1288.006714 
	C1249.669800,1288.003296 1640.654663,1288.001831 2031.639526,1288.001221 
	C2033.306030,1288.001221 2034.974731,1288.070557 2036.638794,1288.009277 
	C2040.883545,1287.853149 2044.407349,1289.076782 2047.201782,1292.533447 
	C2048.382324,1293.993896 2050.317627,1294.844604 2051.854492,1296.732910 
	C2042.407349,1325.773926 2033.141846,1354.097778 2023.538208,1382.306396 
	C2020.995850,1389.773560 2017.411865,1396.886230 2013.535156,1403.972412 
	C2006.909546,1399.737793 2000.255493,1399.967285 1993.555054,1399.968506 
	C1791.338623,1400.007080 1589.122070,1399.994141 1386.905640,1400.001831 
	C1223.999878,1400.008057 1061.094116,1400.030396 898.188293,1400.045532 
z"/>
<path fill="#F4FD69" opacity="1.000000" stroke="none" 
	d="
M2051.909668,1295.972412 
	C2050.317627,1294.844604 2048.382324,1293.993896 2047.201782,1292.533447 
	C2044.407349,1289.076782 2040.883545,1287.853149 2036.638794,1288.009277 
	C2034.974731,1288.070557 2033.306030,1288.001221 2031.639526,1288.001221 
	C1640.654663,1288.001831 1249.669800,1288.003296 858.684998,1288.006714 
	C857.018555,1288.006714 855.352051,1288.036255 852.735352,1288.079102 
	C845.777710,1272.057861 839.503052,1256.103516 833.837219,1239.935547 
	C828.026794,1223.354980 822.812134,1206.565430 817.228149,1189.083496 
	C821.447144,1188.199707 825.774719,1188.012939 830.102295,1188.012817 
	C1238.779419,1187.999268 1647.456665,1188.014771 2056.133789,1187.892578 
	C2064.148193,1187.890259 2071.333740,1188.522827 2077.094238,1195.722900 
	C2077.011230,1200.586914 2076.312988,1205.247314 2075.529785,1209.893188 
	C2075.167969,1212.039062 2074.640381,1214.156860 2073.738770,1217.687988 
	C2066.162598,1244.716675 2059.036133,1270.344604 2051.909668,1295.972412 
z"/>
<path fill="#D8FA84" opacity="1.000000" stroke="none" 
	d="
M898.260254,1400.755127 
	C1061.094116,1400.030396 1223.999878,1400.008057 1386.905640,1400.001831 
	C1589.122070,1399.994141 1791.338623,1400.007080 1993.555054,1399.968506 
	C2000.255493,1399.967285 2006.909546,1399.737793 2013.454956,1404.733887 
	C2006.900635,1424.162231 2000.069092,1442.816040 1992.298462,1461.069824 
	C1983.869751,1480.869141 1974.566406,1500.296265 1964.983398,1519.653809 
	C1960.216797,1514.869873 1955.071655,1513.903687 1949.077759,1513.905762 
	C1617.640747,1514.023315 1286.203735,1514.022217 954.766785,1514.033203 
	C939.958435,1485.222900 925.065918,1456.455200 910.393677,1427.575806 
	C906.054077,1419.034180 902.335388,1410.177124 898.260254,1400.755127 
z"/>
<path fill="#CAF990" opacity="1.000000" stroke="none" 
	d="
M954.937256,1514.665039 
	C1286.203735,1514.022217 1617.640747,1514.023315 1949.077759,1513.905762 
	C1955.071655,1513.903687 1960.216797,1514.869873 1964.766968,1520.300537 
	C1963.442383,1525.419678 1961.672974,1529.660034 1959.438354,1534.401611 
	C1952.885376,1546.743774 1947.092773,1558.748413 1940.637451,1570.385498 
	C1932.100464,1585.775757 1923.044556,1600.878174 1913.446167,1615.922363 
	C1907.099976,1612.106079 1900.878784,1611.946533 1894.467651,1611.948486 
	C1692.977417,1612.011353 1491.487305,1612.000000 1289.997070,1612.000000 
	C1203.073242,1612.000000 1116.149414,1611.961426 1029.225708,1612.096069 
	C1024.017456,1612.104126 1018.811340,1613.495483 1013.604248,1614.243164 
	C997.101196,1586.786499 980.560242,1559.352417 964.127502,1531.853638 
	C960.906189,1526.463135 958.103577,1520.822266 954.937256,1514.665039 
z"/>
<path fill="#BDF799" opacity="1.000000" stroke="none" 
	d="
M1013.823364,1614.899902 
	C1018.811340,1613.495483 1024.017456,1612.104126 1029.225708,1612.096069 
	C1116.149414,1611.961426 1203.073242,1612.000000 1289.997070,1612.000000 
	C1491.487305,1612.000000 1692.977417,1612.011353 1894.467651,1611.948486 
	C1900.878784,1611.946533 1907.099976,1612.106079 1913.371826,1616.655029 
	C1912.665039,1620.787964 1911.346191,1624.043457 1909.851440,1627.216064 
	C1907.253662,1632.730347 1904.547241,1638.193481 1901.351074,1644.112061 
	C1897.480103,1649.838135 1894.115356,1655.112061 1890.813477,1660.425049 
	C1880.544800,1676.948730 1870.299927,1693.487305 1859.511475,1709.507324 
	C1855.647461,1703.355835 1850.114014,1703.997192 1844.791260,1703.997437 
	C1588.102173,1704.012085 1331.413208,1704.022949 1074.724121,1704.034302 
	C1054.496948,1674.541748 1034.269653,1645.049072 1013.823364,1614.899902 
z"/>
<path fill="#B0F6A1" opacity="1.000000" stroke="none" 
	d="
M1074.966797,1704.622803 
	C1331.413208,1704.022949 1588.102173,1704.012085 1844.791260,1703.997437 
	C1850.114014,1703.997192 1855.647461,1703.355835 1859.361572,1710.189209 
	C1858.100708,1714.206299 1856.518555,1717.067749 1854.799316,1719.844482 
	C1846.522705,1733.211426 1838.209106,1746.555420 1829.423096,1760.369385 
	C1821.340942,1771.244873 1813.744263,1781.658691 1805.319214,1791.901367 
	C1798.559692,1791.153442 1792.628784,1790.074951 1786.697388,1790.072510 
	C1577.788086,1789.985718 1368.878784,1789.999756 1159.969482,1790.001709 
	C1156.970947,1790.001709 1153.919922,1789.687744 1150.989746,1790.141846 
	C1148.491577,1790.528931 1146.132080,1791.812012 1143.711304,1792.698608 
	C1139.409180,1787.719116 1134.863770,1782.927734 1130.846802,1777.727905 
	C1112.220703,1753.617676 1093.741455,1729.394165 1074.966797,1704.622803 
z"/>
<path fill="#A4F4A8" opacity="1.000000" stroke="none" 
	d="
M1143.961670,1793.298096 
	C1146.132080,1791.812012 1148.491577,1790.528931 1150.989746,1790.141846 
	C1153.919922,1789.687744 1156.970947,1790.001709 1159.969482,1790.001709 
	C1368.878784,1789.999756 1577.788086,1789.985718 1786.697388,1790.072510 
	C1792.628784,1790.074951 1798.559692,1791.153442 1805.175049,1792.598877 
	C1804.267578,1796.742065 1803.050171,1800.270996 1801.023682,1803.249512 
	C1787.767578,1822.731445 1774.419189,1842.152344 1760.901001,1861.453003 
	C1757.693359,1866.032593 1753.724854,1870.079346 1749.766235,1873.669922 
	C1747.882080,1869.563721 1745.244385,1867.953003 1741.504639,1868.034058 
	C1739.174194,1868.084473 1736.840942,1868.001953 1734.509033,1868.001953 
	C1565.932861,1867.999878 1397.356689,1867.999512 1228.780518,1868.003052 
	C1226.115723,1868.003052 1223.329346,1867.570068 1220.818970,1868.205444 
	C1218.100708,1868.893677 1215.639893,1870.598755 1213.066895,1871.860352 
	C1190.115356,1845.872803 1167.163696,1819.885132 1143.961670,1793.298096 
z"/>
<path fill="#88F1B6" opacity="1.000000" stroke="none" 
	d="
M1273.952026,1955.942383 
	C1293.220215,1969.508179 1312.455200,1983.121704 1331.780273,1996.605957 
	C1336.549194,1999.933716 1341.611694,2002.840576 1347.336792,2004.791626 
	C1330.428833,1988.951782 1313.520874,1973.112061 1296.607300,1955.964722 
	C1300.246216,1950.222656 1305.288086,1952.089600 1309.695801,1952.085693 
	C1430.651367,1951.978760 1551.607056,1952.034302 1672.562622,1951.916382 
	C1679.994507,1951.909180 1687.105591,1952.431030 1693.478394,1956.510254 
	C1685.359863,1967.260498 1677.452881,1977.354492 1669.776123,1987.620605 
	C1668.045776,1989.934570 1667.118530,1992.848999 1665.205078,1995.775757 
	C1659.081543,2002.690063 1653.626709,2009.359863 1648.055542,2015.931030 
	C1639.485474,2026.039062 1630.835449,2036.079590 1621.544434,2045.745361 
	C1616.727905,2041.706665 1611.687866,2041.985718 1606.665283,2041.986328 
	C1460.711304,2042.003662 1314.757446,2042.000366 1168.803467,2042.002930 
	C1167.137573,2042.003052 1165.338013,2041.633423 1163.832886,2042.134033 
	C1160.475586,2043.250366 1157.265381,2044.809082 1153.431641,2045.804932 
	C1131.870239,2018.305054 1110.872437,1991.187622 1090.642578,1963.907959 
	C1097.823608,1960.670288 1104.564697,1959.889648 1111.663940,1959.912231 
	C1161.069458,1960.069092 1210.475830,1959.997437 1259.881836,1959.989380 
	C1262.864868,1959.988892 1265.958252,1960.371704 1268.792236,1959.699219 
	C1270.701904,1959.246216 1272.244995,1957.248901 1273.952026,1955.942383 
z"/>
<path fill="#97F3AE" opacity="1.000000" stroke="none" 
	d="
M1693.773193,1955.916260 
	C1687.105591,1952.431030 1679.994507,1951.909180 1672.562622,1951.916382 
	C1551.607056,1952.034302 1430.651367,1951.978760 1309.695801,1952.085693 
	C1305.288086,1952.089600 1300.246216,1950.222656 1296.291992,1955.382324 
	C1293.039551,1953.484497 1289.932007,1951.022705 1287.179565,1948.213013 
	C1262.633179,1923.156250 1238.149292,1898.038086 1213.356934,1872.399170 
	C1215.639893,1870.598755 1218.100708,1868.893677 1220.818970,1868.205444 
	C1223.329346,1867.570068 1226.115723,1868.003052 1228.780518,1868.003052 
	C1397.356689,1867.999512 1565.932861,1867.999878 1734.509033,1868.001953 
	C1736.840942,1868.001953 1739.174194,1868.084473 1741.504639,1868.034058 
	C1745.244385,1867.953003 1747.882080,1869.563721 1749.639160,1874.298828 
	C1749.183350,1877.706665 1748.514526,1879.784424 1747.313599,1882.265869 
	C1735.717773,1897.978149 1724.659302,1913.290649 1713.588135,1928.593750 
	C1706.993774,1937.708984 1700.378906,1946.809326 1693.773193,1955.916260 
z"/>
<path fill="#38FBF2" opacity="1.000000" stroke="none" 
	d="
M1549.660156,2276.580566 
	C1527.364380,2299.887695 1505.689697,2323.831299 1482.617065,2346.342041 
	C1453.340088,2374.906006 1422.938110,2402.316895 1392.988525,2430.189697 
	C1390.569336,2432.441162 1387.897461,2434.421143 1384.439209,2437.272217 
	C1329.134033,2387.190674 1276.726318,2334.476562 1227.451416,2278.115234 
	C1239.976440,2272.479248 1252.686157,2274.410156 1265.194824,2273.973389 
	C1272.583984,2273.715576 1272.582031,2273.657959 1274.852295,2265.691406 
	C1278.011841,2268.096191 1280.763916,2270.005615 1283.035889,2272.375732 
	C1289.695068,2279.322998 1295.893555,2286.728271 1302.756958,2293.460205 
	C1322.666138,2312.987793 1342.729980,2332.359619 1362.911377,2351.605713 
	C1369.579956,2357.965332 1376.791138,2363.755859 1384.035889,2370.051025 
	C1386.696411,2368.397949 1389.145996,2367.306152 1391.065430,2365.613281 
	C1404.008667,2354.199219 1417.093628,2342.927246 1429.648560,2331.095703 
	C1449.951782,2311.962158 1469.874878,2292.425537 1489.983765,2273.085449 
	C1491.891602,2271.250732 1493.978516,2269.602295 1496.042725,2268.663574 
	C1496.772095,2275.889893 1501.512085,2275.937012 1506.289551,2275.996338 
	C1520.746582,2276.176270 1535.203247,2276.383789 1549.660156,2276.580566 
z"/>
<path fill="#97F3AE" opacity="1.000000" stroke="none" 
	d="
M1273.562134,1955.378662 
	C1272.244995,1957.248901 1270.701904,1959.246216 1268.792236,1959.699219 
	C1265.958252,1960.371704 1262.864868,1959.988892 1259.881836,1959.989380 
	C1210.475830,1959.997437 1161.069458,1960.069092 1111.663940,1959.912231 
	C1104.564697,1959.889648 1097.823608,1960.670288 1090.155151,1963.468018 
	C1085.362061,1959.228516 1081.824341,1955.266846 1078.190063,1950.645386 
	C1076.763794,1947.380981 1075.722168,1944.573730 1074.055542,1942.206421 
	C1066.313110,1931.208740 1058.255615,1920.431030 1050.619873,1909.361450 
	C1047.886597,1905.399170 1046.022705,1900.837280 1044.212402,1895.869873 
	C1047.537476,1891.421143 1051.717285,1892.028198 1055.646240,1892.017578 
	C1072.919800,1891.971191 1090.193481,1891.995728 1107.467163,1891.995239 
	C1130.720093,1891.994507 1153.973267,1892.046753 1177.225708,1891.944824 
	C1181.311768,1891.927002 1186.229248,1893.314453 1188.119873,1887.559814 
	C1204.657471,1901.280396 1221.001221,1915.244263 1237.799805,1928.637451 
	C1249.261719,1937.775757 1261.359009,1946.117310 1273.562134,1955.378662 
z"/>
<path fill="#A0F4AA" opacity="1.000000" stroke="none" 
	d="
M1187.811768,1886.985596 
	C1186.229248,1893.314453 1181.311768,1891.927002 1177.225708,1891.944824 
	C1153.973267,1892.046753 1130.720093,1891.994507 1107.467163,1891.995239 
	C1090.193481,1891.995728 1072.919800,1891.971191 1055.646240,1892.017578 
	C1051.717285,1892.028198 1047.537476,1891.421143 1043.613770,1895.543213 
	C1040.818115,1893.945923 1038.854126,1892.148926 1037.359619,1890.022217 
	C1026.737793,1874.906372 1016.294250,1859.664673 1005.609558,1844.593750 
	C1002.018311,1839.528809 997.890930,1834.843994 993.893921,1829.298340 
	C992.485962,1825.215820 991.192688,1821.820435 990.288696,1817.774170 
	C994.677002,1811.963745 1000.380737,1811.984253 1006.113708,1811.988037 
	C1033.095459,1812.005859 1060.077271,1811.999023 1087.059082,1811.988770 
	C1089.722778,1811.987793 1092.389282,1811.964111 1095.049316,1811.840332 
	C1098.305054,1811.688843 1099.725952,1809.716431 1099.908569,1806.639282 
	C1114.708252,1820.447144 1129.383057,1834.392090 1144.343750,1848.023315 
	C1158.575073,1860.989868 1173.105103,1873.628540 1187.811768,1886.985596 
z"/>
<path fill="#B0F6A1" opacity="1.000000" stroke="none" 
	d="
M1099.543213,1806.053589 
	C1099.725952,1809.716431 1098.305054,1811.688843 1095.049316,1811.840332 
	C1092.389282,1811.964111 1089.722778,1811.987793 1087.059082,1811.988770 
	C1060.077271,1811.999023 1033.095459,1812.005859 1006.113708,1811.988037 
	C1000.380737,1811.984253 994.677002,1811.963745 989.741638,1817.345459 
	C987.274963,1815.841675 985.505554,1814.273193 984.251038,1812.366089 
	C971.521729,1793.016235 958.795898,1773.662964 946.257202,1754.189575 
	C942.519958,1748.385498 939.373291,1742.201294 936.496216,1735.630615 
	C941.450989,1734.042603 945.853394,1732.194214 950.282654,1732.127441 
	C971.213867,1731.811523 992.152527,1731.998291 1013.088501,1731.968872 
	C1017.758972,1731.962280 1022.768127,1732.421509 1023.951538,1726.000366 
	C1040.024658,1743.661621 1055.925781,1761.483643 1072.240479,1778.918823 
	C1080.847534,1788.116699 1090.175537,1796.640015 1099.543213,1806.053589 
z"/>
<path fill="#BDF799" opacity="1.000000" stroke="none" 
	d="
M1023.716492,1725.377930 
	C1022.768127,1732.421509 1017.758972,1731.962280 1013.088501,1731.968872 
	C992.152527,1731.998291 971.213867,1731.811523 950.282654,1732.127441 
	C945.853394,1732.194214 941.450989,1734.042603 936.006287,1735.156738 
	C931.407837,1729.733643 927.879028,1724.197754 924.260925,1718.720825 
	C919.573547,1711.625122 914.815063,1704.576660 909.968445,1696.843750 
	C900.021973,1678.755493 890.194214,1661.331299 881.092285,1643.728271 
	C886.478210,1640.593628 891.555115,1639.811523 897.041260,1639.912231 
	C909.680481,1640.143799 922.333130,1640.222656 934.967346,1639.880859 
	C940.881653,1639.720703 946.765869,1638.443115 952.663696,1637.672119 
	C961.054932,1648.328003 969.291260,1659.110596 977.871521,1669.612061 
	C992.964050,1688.083740 1008.266785,1706.383545 1023.716492,1725.377930 
z"/>
<path fill="#3DFBE6" opacity="1.000000" stroke="none" 
	d="
M1550.175903,2276.259033 
	C1535.203247,2276.383789 1520.746582,2276.176270 1506.289551,2275.996338 
	C1501.512085,2275.937012 1496.772095,2275.889893 1496.376709,2268.100342 
	C1499.150635,2264.096680 1501.664429,2261.465088 1504.148926,2258.806396 
	C1517.467285,2244.554443 1530.778320,2230.295898 1544.652588,2215.687500 
	C1554.801025,2204.906738 1564.485107,2194.564941 1573.949829,2184.026123 
	C1584.055542,2172.773438 1593.954102,2161.334961 1604.766113,2150.142578 
	C1609.853882,2150.871094 1614.106689,2151.773438 1618.385864,2151.923828 
	C1626.035278,2152.192139 1633.700439,2152.004395 1641.359009,2152.012695 
	C1645.093994,2152.016846 1648.870850,2151.950684 1650.243408,2156.567627 
	C1647.290649,2161.136230 1644.739502,2166.033203 1641.317261,2170.217773 
	C1624.780762,2190.438477 1608.228271,2210.653809 1591.251587,2230.503906 
	C1578.059570,2245.928955 1564.235107,2260.812988 1550.175903,2276.259033 
z"/>
<path fill="#CAF990" opacity="1.000000" stroke="none" 
	d="
M952.281250,1637.092285 
	C946.765869,1638.443115 940.881653,1639.720703 934.967346,1639.880859 
	C922.333130,1640.222656 909.680481,1640.143799 897.041260,1639.912231 
	C891.555115,1639.811523 886.478210,1640.593628 880.712402,1643.135498 
	C864.912659,1615.460205 850.248413,1588.182983 835.476685,1560.963989 
	C834.080322,1558.390991 832.009094,1556.184082 830.178833,1553.070068 
	C829.383240,1548.978760 828.659912,1545.624756 828.331909,1541.633301 
	C832.165649,1536.705688 836.933838,1535.978760 842.006531,1535.987183 
	C851.850281,1536.003662 861.694031,1535.976807 871.537781,1535.973145 
	C875.247375,1535.971802 878.928284,1535.931641 880.175293,1531.343018 
	C890.657593,1547.143066 901.049072,1563.004150 911.645813,1578.727051 
	C924.035706,1597.110474 936.594360,1615.380249 949.121216,1633.671021 
	C949.858398,1634.747314 950.964478,1635.571045 952.281250,1637.092285 
z"/>
<path fill="#3DFBE6" opacity="1.000000" stroke="none" 
	d="
M1274.225586,2265.406494 
	C1272.582031,2273.657959 1272.583984,2273.715576 1265.194824,2273.973389 
	C1252.686157,2274.410156 1239.976440,2272.479248 1227.165894,2277.529541 
	C1210.953125,2260.184570 1195.034546,2242.852783 1179.979004,2224.801025 
	C1160.949585,2201.984375 1142.623169,2178.581543 1124.732788,2154.750000 
	C1136.293457,2154.041992 1147.115112,2153.993652 1157.936646,2153.999268 
	C1162.663086,2154.001709 1167.149414,2153.485352 1170.826416,2149.474365 
	C1172.190796,2149.800781 1172.980835,2149.944336 1173.948120,2150.755371 
	C1178.388428,2156.881836 1182.444336,2162.519043 1186.957886,2167.762207 
	C1196.465820,2178.807373 1206.094849,2189.753906 1215.899048,2200.536377 
	C1224.365601,2209.848145 1233.143066,2218.877197 1242.138184,2228.604980 
	C1251.393066,2238.862305 1260.342896,2248.500488 1269.153809,2258.264160 
	C1271.096802,2260.417236 1272.547852,2263.013916 1274.225586,2265.406494 
z"/>
<path fill="#49F5B5" opacity="1.000000" stroke="none" 
	d="
M951.062012,1894.185181 
	C940.604980,1875.310425 929.838684,1856.599121 919.749084,1837.530029 
	C889.746033,1780.824951 862.291138,1722.906006 838.582275,1662.807739 
	C844.167358,1660.718262 849.046021,1659.384888 854.267334,1658.672363 
	C862.171997,1674.354736 869.698303,1689.434448 877.329956,1704.460693 
	C878.666443,1707.092285 880.445068,1709.499268 882.149780,1712.701050 
	C893.336426,1733.860474 904.055603,1754.520264 915.540100,1774.745605 
	C928.010864,1796.707764 941.193481,1818.265747 954.337646,1840.628662 
	C958.719116,1848.015991 962.872437,1854.748535 966.928467,1861.539307 
	C973.335938,1872.267212 979.678101,1883.034180 985.379639,1894.278564 
	C973.450012,1897.145996 962.245483,1896.269043 951.062012,1894.185181 
z"/>
<path fill="#43F9D8" opacity="1.000000" stroke="none" 
	d="
M1650.907227,2156.375000 
	C1648.870850,2151.950684 1645.093994,2152.016846 1641.359009,2152.012695 
	C1633.700439,2152.004395 1626.035278,2152.192139 1618.385864,2151.923828 
	C1614.106689,2151.773438 1609.853882,2150.871094 1605.115234,2149.571289 
	C1615.732910,2135.221436 1626.824341,2121.607422 1638.293579,2107.440430 
	C1652.387695,2089.350830 1666.065063,2071.783447 1679.834473,2054.288818 
	C1688.443726,2043.350586 1697.191528,2032.521484 1706.327881,2022.305176 
	C1709.744995,2023.973633 1712.663330,2025.627075 1715.687744,2025.851318 
	C1721.863525,2026.308960 1728.116089,2025.701660 1734.297363,2026.119385 
	C1737.706299,2026.349609 1741.034668,2027.769043 1744.399414,2028.652344 
	C1734.407593,2043.153687 1724.661499,2057.832275 1714.370483,2072.118164 
	C1695.830811,2097.854492 1676.990479,2123.374268 1658.195557,2148.925781 
	C1656.265625,2151.549316 1653.792114,2153.772949 1650.907227,2156.375000 
z"/>
<path fill="#48F8C9" opacity="1.000000" stroke="none" 
	d="
M1744.951660,2028.250977 
	C1741.034668,2027.769043 1737.706299,2026.349609 1734.297363,2026.119385 
	C1728.116089,2025.701660 1721.863525,2026.308960 1715.687744,2025.851318 
	C1712.663330,2025.627075 1709.744995,2023.973633 1706.472412,2021.649658 
	C1709.384033,2014.858276 1712.601562,2009.384033 1716.190918,2003.349365 
	C1718.417969,2000.462769 1720.431396,1998.244629 1722.104004,1995.793945 
	C1743.556519,1964.360474 1764.995239,1932.917480 1786.312866,1901.392578 
	C1788.112183,1898.731567 1789.015259,1895.464478 1790.853516,1892.040405 
	C1793.914185,1888.265259 1796.381104,1884.867920 1799.018311,1881.608521 
	C1801.829346,1878.134521 1804.801636,1874.790894 1808.359009,1871.944092 
	C1818.944092,1873.048828 1828.873901,1873.599976 1838.803589,1874.151245 
	C1810.100342,1926.838867 1779.216553,1978.202759 1744.951660,2028.250977 
z"/>
<path fill="#43F9D8" opacity="1.000000" stroke="none" 
	d="
M1170.252075,2149.291504 
	C1167.149414,2153.485352 1162.663086,2154.001709 1157.936646,2153.999268 
	C1147.115112,2153.993652 1136.293457,2154.041992 1124.503540,2154.094727 
	C1113.040894,2140.483643 1102.138672,2127.137939 1092.139282,2113.146729 
	C1072.863159,2086.175781 1054.097534,2058.839600 1035.877686,2030.920166 
	C1043.843994,2030.118286 1051.056763,2030.176636 1058.260376,2029.944824 
	C1064.181030,2029.754150 1070.140625,2029.346802 1074.594849,2024.223633 
	C1102.856079,2060.553955 1130.599609,2096.462891 1158.257935,2132.437012 
	C1162.458008,2137.899902 1166.263916,2143.665771 1170.252075,2149.291504 
z"/>
<path fill="#D8FA84" opacity="1.000000" stroke="none" 
	d="
M879.828979,1530.766602 
	C878.928284,1535.931641 875.247375,1535.971802 871.537781,1535.973145 
	C861.694031,1535.976807 851.850281,1536.003662 842.006531,1535.987183 
	C836.933838,1535.978760 832.165649,1536.705688 827.797241,1541.176514 
	C826.258728,1540.567505 825.477478,1539.858276 825.066833,1538.976440 
	C813.959778,1515.124390 802.639832,1491.366699 791.910095,1467.345581 
	C785.541016,1453.086914 780.112122,1438.408081 775.083008,1423.868408 
	C789.542786,1422.427490 803.180115,1421.036255 816.817383,1419.645020 
	C830.539124,1444.239014 844.180481,1468.878174 858.016296,1493.407837 
	C864.989807,1505.771240 872.315918,1517.935791 879.828979,1530.766602 
z"/>
<path fill="#48F8C9" opacity="1.000000" stroke="none" 
	d="
M1074.049072,2023.823486 
	C1070.140625,2029.346802 1064.181030,2029.754150 1058.260376,2029.944824 
	C1051.056763,2030.176636 1043.843994,2030.118286 1035.603271,2030.241211 
	C1022.231384,2011.366821 1009.468323,1992.696167 997.655090,1973.442871 
	C981.881531,1947.734619 966.845398,1921.573730 951.277344,1894.896240 
	C962.245483,1896.269043 973.450012,1897.145996 985.856262,1894.767578 
	C988.863647,1897.513550 990.725525,1900.265137 992.588257,1903.015991 
	C1006.379883,1923.381836 1020.171753,1943.747681 1034.263916,1964.719727 
	C1042.084717,1976.270386 1049.666260,1987.173340 1057.105347,1998.172485 
	C1062.845825,2006.660278 1068.407837,2015.268799 1074.049072,2023.823486 
z"/>
<path fill="#F4FD69" opacity="1.000000" stroke="none" 
	d="
M765.531494,1310.007202 
	C765.941101,1310.796265 766.350708,1311.585205 765.934875,1313.092041 
	C761.790283,1313.869629 758.467224,1314.060303 755.152771,1313.961548 
	C748.552612,1313.765137 742.679443,1315.399658 737.500854,1319.652100 
	C733.995117,1309.573242 730.487183,1300.194824 727.945374,1290.561523 
	C718.263916,1253.869019 708.481995,1217.193970 699.552856,1180.315063 
	C693.603210,1155.741699 689.035645,1130.833618 683.901611,1105.203613 
	C680.867310,1083.286011 677.463745,1062.279541 674.860657,1041.174316 
	C673.904968,1033.426392 670.333313,1025.695679 673.385315,1017.655151 
	C683.535889,1057.073242 693.130554,1096.645020 703.985596,1135.868164 
	C716.029480,1179.387085 730.946106,1222.003418 747.397217,1264.063843 
	C752.876221,1278.072021 758.505310,1292.021484 764.239990,1307.195923 
	C764.675720,1309.008667 765.048096,1309.546387 765.531494,1310.007202 
z"/>
<path fill="#49F5B5" opacity="1.000000" stroke="none" 
	d="
M1839.283936,1873.718506 
	C1828.873901,1873.599976 1818.944092,1873.048828 1808.449219,1871.268066 
	C1809.058105,1867.323120 1809.937622,1864.429810 1811.452881,1861.920532 
	C1823.265747,1842.359497 1835.388184,1822.982910 1847.017090,1803.314087 
	C1852.543823,1793.966431 1857.201660,1784.105225 1862.779907,1774.031128 
	C1871.198242,1759.763672 1879.081421,1745.936890 1886.984375,1732.121338 
	C1893.227051,1721.208496 1899.494141,1710.309814 1906.174805,1700.058105 
	C1909.154419,1701.794312 1911.671265,1702.982544 1914.275513,1703.930298 
	C1916.916626,1704.891602 1919.644043,1705.615479 1922.333618,1706.443359 
	C1908.198730,1736.780273 1894.569214,1767.366211 1879.774414,1797.377808 
	C1867.132080,1823.022705 1853.152466,1848.008423 1839.283936,1873.718506 
z"/>
<path fill="#E8FC76" opacity="1.000000" stroke="none" 
	d="
M737.942444,1320.235596 
	C742.679443,1315.399658 748.552612,1313.765137 755.152771,1313.961548 
	C758.467224,1314.060303 761.790283,1313.869629 766.081360,1313.746094 
	C778.050293,1337.462036 788.988159,1361.269165 800.073303,1385.007690 
	C804.549316,1394.592896 809.347412,1404.027710 814.256409,1414.791016 
	C814.973450,1416.721069 815.433105,1417.390869 815.892761,1418.060791 
	C815.892761,1418.060791 816.551575,1418.739990 816.684448,1419.192505 
	C803.180115,1421.036255 789.542786,1422.427490 774.739258,1423.230591 
	C767.104614,1406.381104 760.636353,1390.119629 754.050659,1373.103760 
	C750.810852,1362.580566 747.611694,1352.835327 744.590637,1343.035156 
	C742.258789,1335.471069 740.150269,1327.838013 737.942444,1320.235596 
z"/>
<path fill="#53F19F" opacity="1.000000" stroke="none" 
	d="
M1922.831787,1705.947510 
	C1919.644043,1705.615479 1916.916626,1704.891602 1914.275513,1703.930298 
	C1911.671265,1702.982544 1909.154419,1701.794312 1906.255615,1699.369873 
	C1908.722534,1691.802490 1911.588501,1685.600830 1914.328369,1679.343994 
	C1917.062256,1673.101074 1919.669678,1666.802734 1922.852539,1660.050171 
	C1927.648682,1650.978760 1932.259277,1642.533936 1936.139526,1633.765869 
	C1949.018799,1604.664551 1961.635376,1575.446655 1974.755981,1545.695435 
	C1982.567017,1526.573730 1990.402710,1508.187012 1997.272339,1489.445923 
	C2005.631836,1466.639771 2013.230835,1443.553589 2021.058350,1420.554443 
	C2026.633789,1404.171997 2031.992676,1387.715942 2037.548340,1371.326660 
	C2040.412598,1362.877197 2043.495361,1354.501831 2046.479492,1346.093018 
	C2042.091797,1363.808716 2038.455200,1381.751953 2033.170898,1399.196045 
	C2019.108765,1445.617798 2005.171509,1492.106812 1989.635376,1538.045166 
	C1970.394775,1594.936401 1948.280396,1650.777832 1922.831787,1705.947510 
z"/>
<path fill="#9FE4A2" opacity="1.000000" stroke="none" 
	d="
M2046.632324,1345.843018 
	C2043.495361,1354.501831 2040.412598,1362.877197 2037.548340,1371.326660 
	C2031.992676,1387.715942 2026.633789,1404.171997 2021.058350,1420.554443 
	C2013.230835,1443.553589 2005.631836,1466.639771 1997.272339,1489.445923 
	C1990.402710,1508.187012 1982.567017,1526.573730 1974.088867,1545.457520 
	C1968.646729,1541.832031 1964.275146,1537.866211 1959.903564,1533.900391 
	C1961.672974,1529.660034 1963.442383,1525.419678 1965.428223,1520.532471 
	C1974.566406,1500.296265 1983.869751,1480.869141 1992.298462,1461.069824 
	C2000.069092,1442.816040 2006.900635,1424.162231 2014.226074,1404.923096 
	C2017.411865,1396.886230 2020.995850,1389.773560 2023.538208,1382.306396 
	C2033.141846,1354.097778 2042.407349,1325.773926 2051.854492,1296.732910 
	C2059.036133,1270.344604 2066.162598,1244.716675 2073.742432,1218.489380 
	C2072.183594,1229.976074 2070.640869,1242.163330 2068.062500,1254.127441 
	C2062.532471,1279.786133 2056.468262,1305.329468 2049.929688,1332.105225 
	C2049.001465,1334.927002 2048.766357,1336.563721 2048.531250,1338.200439 
	C2048.531250,1338.200439 2048.585693,1338.303589 2048.035156,1338.846924 
	C2047.184814,1341.274292 2046.885010,1343.158325 2046.585083,1345.042480 
	C2046.585083,1345.042480 2046.785034,1345.593140 2046.632324,1345.843018 
z"/>
<path fill="#53F19F" opacity="1.000000" stroke="none" 
	d="
M853.924683,1658.051636 
	C849.046021,1659.384888 844.167358,1660.718262 838.477417,1662.067139 
	C834.799438,1655.740967 831.736267,1649.479858 829.095520,1643.045288 
	C789.207947,1545.853149 756.616760,1446.240967 730.261108,1344.566406 
	C729.843384,1342.955322 729.563293,1341.308594 729.664795,1339.221802 
	C731.393494,1342.122925 732.782471,1345.444580 733.940002,1348.845093 
	C737.765869,1360.083984 741.508179,1371.351440 745.394958,1383.350098 
	C746.648865,1388.251953 747.622681,1392.466431 748.957214,1396.563232 
	C767.181519,1452.511841 787.357300,1507.736694 810.653687,1562.546143 
	C825.229065,1594.822021 839.576843,1626.436890 853.924683,1658.051636 
z"/>
<path fill="#B0F6A1" opacity="1.000000" stroke="none" 
	d="
M745.282593,1382.607910 
	C741.508179,1371.351440 737.765869,1360.083984 733.940002,1348.845093 
	C732.782471,1345.444580 731.393494,1342.122925 729.549805,1338.505493 
	C722.724670,1312.119629 715.936157,1286.105347 710.324585,1259.839722 
	C702.829956,1224.760254 696.190979,1189.496826 689.310547,1154.287842 
	C687.219604,1143.588013 685.647705,1132.787476 683.633728,1122.071533 
	C682.722229,1117.221558 681.311584,1112.465332 680.821594,1106.861328 
	C682.293701,1106.062378 683.071594,1106.068848 683.849487,1106.075439 
	C689.035645,1130.833618 693.603210,1155.741699 699.552856,1180.315063 
	C708.481995,1217.193970 718.263916,1253.869019 727.945374,1290.561523 
	C730.487183,1300.194824 733.995117,1309.573242 737.500854,1319.652100 
	C740.150269,1327.838013 742.258789,1335.471069 744.590637,1343.035156 
	C747.611694,1352.835327 750.810852,1362.580566 753.391968,1373.317261 
	C750.327942,1377.059448 747.805298,1379.833740 745.282593,1382.607910 
z"/>
<path fill="#CAF990" opacity="1.000000" stroke="none" 
	d="
M683.901611,1105.203613 
	C683.071594,1106.068848 682.293701,1106.062378 680.931274,1106.063477 
	C677.694092,1088.362915 674.850098,1070.680786 672.453552,1052.937988 
	C670.747559,1040.307495 669.584473,1027.601807 668.292297,1014.917969 
	C667.424500,1006.400085 666.754517,997.861938 666.447754,988.493164 
	C666.899475,987.653381 667.278320,987.424438 667.278320,987.424438 
	C669.349365,997.001160 671.420471,1006.577881 673.438416,1016.904907 
	C670.333313,1025.695679 673.904968,1033.426392 674.860657,1041.174316 
	C677.463745,1062.279541 680.867310,1083.286011 683.901611,1105.203613 
z"/>
<path fill="#8DDFAA" opacity="1.000000" stroke="none" 
	d="
M667.333496,986.678955 
	C667.278320,987.424438 666.899475,987.653381 666.690186,987.580139 
	C665.538940,980.215820 664.596985,972.924805 663.653320,965.620850 
	C663.424438,965.579346 663.114014,965.423462 662.899109,965.508606 
	C662.613525,965.621765 662.156799,965.986389 662.194885,966.134399 
	C663.897156,972.741577 665.645691,979.336853 667.333496,986.678955 
z"/>
<path fill="#53F19F" opacity="1.000000" stroke="none" 
	d="
M2048.901855,1337.698730 
	C2048.766357,1336.563721 2049.001465,1334.927002 2049.622070,1332.803955 
	C2049.762695,1333.944092 2049.517578,1335.570557 2048.901855,1337.698730 
z"/>
<path fill="#53F19F" opacity="1.000000" stroke="none" 
	d="
M2047.033936,1344.483765 
	C2046.885010,1343.158325 2047.184814,1341.274292 2047.995239,1338.889404 
	C2048.164795,1340.234131 2047.823853,1342.079590 2047.033936,1344.483765 
z"/>
<path fill="#E8FC76" opacity="1.000000" stroke="none" 
	d="
M765.504517,1309.488281 
	C765.048096,1309.546387 764.675720,1309.008667 764.272400,1307.920654 
	C764.579590,1307.954590 765.028564,1308.461914 765.504517,1309.488281 
z"/>
<path fill="#D8FA84" opacity="1.000000" stroke="none" 
	d="
M2112.775391,923.775208 
	C2112.525879,923.875305 2112.554443,923.051880 2112.695068,922.896484 
	C2113.220215,922.988342 2113.283203,923.299683 2112.775391,923.775208 
z"/>
<path fill="#D8FA84" opacity="1.000000" stroke="none" 
	d="
M815.834961,1417.419678 
	C815.433105,1417.390869 814.973450,1416.721069 814.317871,1415.466187 
	C814.673706,1415.513672 815.225464,1416.145996 815.834961,1417.419678 
z"/>
<path fill="#FCFCE2" opacity="1.000000" stroke="none" 
	d="
M1121.473633,741.503174 
	C1168.488892,707.892029 1211.819458,670.985840 1253.454590,631.993530 
	C1297.506470,590.737793 1339.579468,547.553345 1380.543945,503.260712 
	C1382.502563,501.143005 1384.804321,499.342651 1387.743896,496.668854 
	C1419.565918,536.203125 1452.700073,573.483887 1487.883179,608.920776 
	C1523.363037,644.656372 1560.451050,678.605347 1599.456909,710.466980 
	C1637.978394,741.933105 1678.288330,770.970154 1719.814453,798.370850 
	C1705.154907,797.098572 1618.913086,751.400452 1546.133545,707.072937 
	C1490.345337,673.094360 1436.811646,635.865540 1386.503662,594.060669 
	C1278.061523,672.330444 1161.598877,735.593689 1043.759888,796.497925 
	C1043.295898,795.742065 1042.831909,794.986145 1042.367920,794.230286 
	C1068.545898,776.798767 1094.723755,759.367188 1121.473633,741.503174 
z"/>
<path fill="#FCFCE2" opacity="1.000000" stroke="none" 
	d="
M1030.082397,802.055786 
	C1032.089355,800.585449 1034.096436,799.115051 1036.981201,797.740234 
	C1037.858765,797.835815 1038.369019,798.344788 1038.369019,798.344727 
	C1036.011230,799.570374 1033.653320,800.796021 1030.649292,802.003784 
	C1030.003052,801.985840 1030.082397,802.055847 1030.082397,802.055786 
z"/>
<path fill="#FCFCE2" opacity="1.000000" stroke="none" 
	d="
M1728.404419,803.565430 
	C1729.229736,803.999756 1730.055054,804.434021 1730.880371,804.868408 
	C1730.042480,804.911926 1729.204468,804.955505 1728.235229,804.437866 
	C1728.103882,803.876648 1728.404419,803.565430 1728.404419,803.565430 
z"/>
<path fill="#FCFCE2" opacity="1.000000" stroke="none" 
	d="
M1024.866699,804.828003 
	C1025.065308,804.697754 1025.165771,805.196899 1025.165771,805.196899 
	C1025.165771,805.196899 1024.667969,804.958191 1024.866699,804.828003 
z"/>
<path fill="#FCFCE2" opacity="1.000000" stroke="none" 
	d="
M1727.951660,804.030396 
	C1727.352417,803.855530 1726.905151,803.526794 1726.458008,803.198120 
	C1726.941406,803.080933 1727.424683,802.963867 1728.156250,803.206055 
	C1728.404419,803.565430 1728.103882,803.876648 1727.951660,804.030396 
z"/>
<path fill="#FCFCE2" opacity="1.000000" stroke="none" 
	d="
M1029.967529,801.946533 
	C1029.769165,802.000427 1029.606201,802.093628 1029.762695,802.121338 
	C1030.082397,802.055847 1030.003052,801.985840 1029.967529,801.946533 
z"/>
<path fill="#FCFCE2" opacity="1.000000" stroke="none" 
	d="
M1722.710938,800.714844 
	C1723.178467,800.663330 1723.349731,800.850159 1723.520874,801.036926 
	C1723.152100,801.008972 1722.783447,800.981018 1722.710938,800.714844 
z"/>
<path fill="#FCFCE2" opacity="1.000000" stroke="none" 
	d="
M1037.605469,797.579529 
	C1037.890991,797.040710 1038.429565,796.758240 1038.968140,796.475708 
	C1039.045044,796.953491 1039.121826,797.431274 1038.783813,798.126953 
	C1038.369019,798.344788 1037.858765,797.835815 1037.605469,797.579529 
z"/>
<path fill="#8DDFAA" opacity="1.000000" stroke="none" 
	d="
M1959.438232,1534.401611 
	C1964.275146,1537.866211 1968.646729,1541.832031 1973.685547,1546.035645 
	C1961.635376,1575.446655 1949.018799,1604.664551 1936.139526,1633.765869 
	C1932.259277,1642.533936 1927.648682,1650.978760 1922.474243,1659.346924 
	C1920.019897,1655.856079 1917.600098,1653.793213 1913.819946,1654.066772 
	C1906.297119,1654.610840 1903.059204,1650.361572 1901.886475,1643.678101 
	C1904.547241,1638.193481 1907.253662,1632.730347 1909.851440,1627.216064 
	C1911.346191,1624.043457 1912.665039,1620.787964 1914.137207,1616.837036 
	C1923.044556,1600.878174 1932.100464,1585.775757 1940.637451,1570.385498 
	C1947.092773,1558.748413 1952.885376,1546.743774 1959.438232,1534.401611 
z"/>
<path fill="#85DDAD" opacity="1.000000" stroke="none" 
	d="
M1901.351196,1644.112061 
	C1903.059204,1650.361572 1906.297119,1654.610840 1913.819946,1654.066772 
	C1917.600098,1653.793213 1920.019897,1655.856079 1921.954102,1659.825439 
	C1919.669678,1666.802734 1917.062256,1673.101074 1914.328369,1679.343994 
	C1911.588501,1685.600830 1908.722534,1691.802490 1905.831055,1698.716553 
	C1899.494141,1710.309814 1893.227051,1721.208496 1886.984375,1732.121338 
	C1879.081421,1745.936890 1871.198242,1759.763672 1862.366211,1773.345459 
	C1857.347046,1766.453003 1850.648315,1767.779541 1844.672852,1768.134521 
	C1837.695312,1768.549194 1832.520386,1766.811890 1829.908691,1759.907471 
	C1838.209106,1746.555420 1846.522705,1733.211426 1854.799316,1719.844482 
	C1856.518555,1717.067749 1858.100708,1714.206299 1859.895874,1710.701904 
	C1870.299927,1693.487305 1880.544800,1676.948730 1890.813477,1660.425049 
	C1894.115356,1655.112061 1897.480103,1649.838135 1901.351196,1644.112061 
z"/>
<path fill="#76D9B3" opacity="1.000000" stroke="none" 
	d="
M1829.423096,1760.369385 
	C1832.520386,1766.811890 1837.695312,1768.549194 1844.672852,1768.134521 
	C1850.648315,1767.779541 1857.347046,1766.453003 1861.839600,1773.791016 
	C1857.201660,1784.105225 1852.543823,1793.966431 1847.017090,1803.314087 
	C1835.388184,1822.982910 1823.265747,1842.359497 1811.452881,1861.920532 
	C1809.937622,1864.429810 1809.058105,1867.323120 1807.793945,1870.714600 
	C1804.801636,1874.790894 1801.829346,1878.134521 1799.018311,1881.608521 
	C1796.381104,1884.867920 1793.914185,1888.265259 1790.360596,1891.354980 
	C1786.350098,1890.073730 1783.401123,1888.373901 1780.341797,1888.144165 
	C1774.087280,1887.674316 1767.755859,1887.699951 1761.489136,1888.074707 
	C1755.664307,1888.423096 1751.141479,1886.687256 1747.845581,1881.862061 
	C1748.514526,1879.784424 1749.183350,1877.706665 1749.979248,1875.000000 
	C1753.724854,1870.079346 1757.693359,1866.032593 1760.901001,1861.453003 
	C1774.419189,1842.152344 1787.767578,1822.731445 1801.023682,1803.249512 
	C1803.050171,1800.270996 1804.267578,1796.742065 1806.003418,1792.770020 
	C1813.744263,1781.658691 1821.340942,1771.244873 1829.423096,1760.369385 
z"/>
<path fill="#77F0BC" opacity="1.000000" stroke="none" 
	d="
M1153.995239,2046.187500 
	C1157.265381,2044.809082 1160.475586,2043.250366 1163.832886,2042.134033 
	C1165.338013,2041.633423 1167.137573,2042.003052 1168.803467,2042.002930 
	C1314.757446,2042.000366 1460.711304,2042.003662 1606.665283,2041.986328 
	C1611.687866,2041.985718 1616.727905,2041.706665 1621.358032,2046.403076 
	C1620.759155,2049.113281 1619.825562,2050.892090 1618.560547,2052.391357 
	C1605.731445,2067.595459 1592.847900,2082.754150 1579.409424,2098.283691 
	C1577.280518,2100.322754 1575.719849,2102.001709 1574.163330,2103.684814 
	C1564.799561,2113.811035 1555.436768,2123.938232 1545.248047,2133.886963 
	C1539.497314,2133.139160 1534.572632,2132.077881 1529.646973,2132.072754 
	C1435.491943,2131.974365 1341.336548,2132.041748 1247.181641,2131.904053 
	C1241.019531,2131.895020 1235.365112,2132.714844 1229.736572,2135.365479 
	C1215.363770,2119.278564 1201.036499,2104.021484 1187.463135,2088.121094 
	C1175.858276,2074.526367 1165.118042,2060.193848 1153.995239,2046.187500 
z"/>
<path fill="#56D2BC" opacity="1.000000" stroke="none" 
	d="
M1153.431641,2045.804932 
	C1165.118042,2060.193848 1175.858276,2074.526367 1187.463135,2088.121094 
	C1201.036499,2104.021484 1215.363770,2119.278564 1230.038452,2135.934082 
	C1233.156494,2140.025879 1235.600098,2142.998047 1237.220337,2146.130127 
	C1232.519653,2146.850830 1228.650146,2147.821777 1224.763428,2147.895752 
	C1213.272705,2148.114258 1201.769165,2147.758789 1190.282837,2148.075195 
	C1184.764648,2148.227051 1179.274048,2149.385254 1173.770996,2150.087646 
	C1172.980835,2149.944336 1172.190796,2149.800781 1170.826416,2149.474365 
	C1166.263916,2143.665771 1162.458008,2137.899902 1158.257935,2132.437012 
	C1130.599609,2096.462891 1102.856079,2060.553955 1074.594727,2024.223633 
	C1068.407837,2015.268799 1062.845825,2006.660278 1057.105347,1998.172485 
	C1049.666260,1987.173340 1042.084717,1976.270386 1034.663086,1964.077026 
	C1037.394775,1958.697021 1041.428101,1957.938599 1045.926880,1957.996094 
	C1053.160645,1958.088623 1060.404175,1957.808594 1067.629517,1958.071777 
	C1072.934204,1958.264771 1076.512573,1956.364990 1078.286743,1951.305176 
	C1081.824341,1955.266846 1085.362061,1959.228516 1089.387207,1963.630127 
	C1110.872437,1991.187622 1131.870239,2018.305054 1153.431641,2045.804932 
z"/>
<path fill="#56D2BC" opacity="1.000000" stroke="none" 
	d="
M1579.979736,2097.925781 
	C1592.847900,2082.754150 1605.731445,2067.595459 1618.560547,2052.391357 
	C1619.825562,2050.892090 1620.759155,2049.113281 1622.032959,2046.806641 
	C1630.835449,2036.079590 1639.485474,2026.039062 1648.055542,2015.931030 
	C1653.626709,2009.359863 1659.081543,2002.690063 1665.600952,1996.472900 
	C1669.600220,2001.965332 1674.529663,2001.847900 1679.568115,2002.040039 
	C1691.657837,2002.501099 1703.736206,2003.266968 1715.819092,2003.909790 
	C1712.601562,2009.384033 1709.384033,2014.858276 1706.021729,2020.987793 
	C1697.191528,2032.521484 1688.443726,2043.350586 1679.834473,2054.288818 
	C1666.065063,2071.783447 1652.387695,2089.350830 1637.483398,2107.276855 
	C1631.761108,2107.111084 1627.234985,2106.175781 1622.690430,2106.075928 
	C1611.858032,2105.837402 1601.013672,2105.831543 1590.180664,2106.053467 
	C1584.268311,2106.174561 1580.778931,2103.903320 1579.979736,2097.925781 
z"/>
<path fill="#6CD7B6" opacity="1.000000" stroke="none" 
	d="
M1716.190918,2003.349365 
	C1703.736206,2003.266968 1691.657837,2002.501099 1679.568115,2002.040039 
	C1674.529663,2001.847900 1669.600220,2001.965332 1666.217529,1996.184082 
	C1667.118530,1992.848999 1668.045776,1989.934570 1669.776123,1987.620605 
	C1677.452881,1977.354492 1685.359863,1967.260498 1693.478394,1956.510254 
	C1700.378906,1946.809326 1706.993774,1937.708984 1713.588135,1928.593750 
	C1724.659302,1913.290649 1735.717773,1897.978149 1747.313599,1882.265869 
	C1751.141479,1886.687256 1755.664307,1888.423096 1761.489136,1888.074707 
	C1767.755859,1887.699951 1774.087280,1887.674316 1780.341797,1888.144165 
	C1783.401123,1888.373901 1786.350098,1890.073730 1789.841797,1891.793579 
	C1789.015259,1895.464478 1788.112183,1898.731567 1786.312866,1901.392578 
	C1764.995239,1932.917480 1743.556519,1964.360474 1722.104004,1995.793945 
	C1720.431396,1998.244629 1718.417969,2000.462769 1716.190918,2003.349365 
z"/>
<path fill="#32CCC3" opacity="1.000000" stroke="none" 
	d="
M1274.852295,2265.691406 
	C1272.547852,2263.013916 1271.096802,2260.417236 1269.153809,2258.264160 
	C1260.342896,2248.500488 1251.393066,2238.862305 1243.098389,2228.593506 
	C1261.638306,2227.999756 1279.573486,2227.916992 1297.507446,2228.028320 
	C1302.853271,2228.061523 1307.427490,2227.084229 1310.571289,2222.184326 
	C1333.268188,2243.218750 1355.406494,2263.873291 1377.527344,2284.546631 
	C1383.984131,2290.581055 1385.326538,2290.836426 1391.668213,2285.107178 
	C1408.451538,2269.944336 1425.058960,2254.586914 1441.779175,2239.354004 
	C1451.118286,2230.845459 1460.542480,2222.430176 1470.870117,2213.979004 
	C1491.701538,2213.990234 1511.592285,2213.880615 1531.479736,2214.093262 
	C1535.690186,2214.138184 1539.888184,2215.360107 1544.091797,2216.039795 
	C1530.778320,2230.295898 1517.467285,2244.554443 1504.148926,2258.806396 
	C1501.664429,2261.465088 1499.150635,2264.096680 1496.316284,2267.304199 
	C1493.978516,2269.602295 1491.891602,2271.250732 1489.983765,2273.085449 
	C1469.874878,2292.425537 1449.951782,2311.962158 1429.648560,2331.095703 
	C1417.093628,2342.927246 1404.008667,2354.199219 1391.065430,2365.613281 
	C1389.145996,2367.306152 1386.696411,2368.397949 1384.035889,2370.051025 
	C1376.791138,2363.755859 1369.579956,2357.965332 1362.911377,2351.605713 
	C1342.729980,2332.359619 1322.666138,2312.987793 1302.756958,2293.460205 
	C1295.893555,2286.728271 1289.695068,2279.322998 1283.035889,2272.375732 
	C1280.763916,2270.005615 1278.011841,2268.096191 1274.852295,2265.691406 
z"/>
<path fill="#6CD7B6" opacity="1.000000" stroke="none" 
	d="
M1078.190063,1950.645386 
	C1076.512573,1956.364990 1072.934204,1958.264771 1067.629517,1958.071777 
	C1060.404175,1957.808594 1053.160645,1958.088623 1045.926880,1957.996094 
	C1041.428101,1957.938599 1037.394775,1958.697021 1034.362549,1963.470703 
	C1020.171753,1943.747681 1006.379883,1923.381836 992.588257,1903.015991 
	C990.725525,1900.265137 988.863647,1897.513550 986.524597,1894.273438 
	C979.678101,1883.034180 973.335938,1872.267212 966.928467,1861.539307 
	C962.872437,1854.748535 958.719116,1848.015991 955.170288,1840.572021 
	C964.193665,1839.258911 972.655945,1838.160645 981.118835,1838.155762 
	C987.554749,1838.151978 991.885132,1836.151611 994.008606,1829.985352 
	C997.890930,1834.843994 1002.018311,1839.528809 1005.609558,1844.593750 
	C1016.294250,1859.664673 1026.737793,1874.906372 1037.359619,1890.022217 
	C1038.854126,1892.148926 1040.818115,1893.945923 1043.163330,1896.222290 
	C1046.022705,1900.837280 1047.886597,1905.399170 1050.619873,1909.361450 
	C1058.255615,1920.431030 1066.313110,1931.208740 1074.055542,1942.206421 
	C1075.722168,1944.573730 1076.763794,1947.380981 1078.190063,1950.645386 
z"/>
<path fill="#76D9B3" opacity="1.000000" stroke="none" 
	d="
M993.893921,1829.298340 
	C991.885132,1836.151611 987.554749,1838.151978 981.118835,1838.155762 
	C972.655945,1838.160645 964.193665,1839.258911 954.898376,1839.943481 
	C941.193481,1818.265747 928.010864,1796.707764 915.540100,1774.745605 
	C904.055603,1754.520264 893.336426,1733.860474 882.697571,1712.175781 
	C888.089905,1709.975708 893.026306,1708.525024 898.048096,1708.111328 
	C906.809814,1707.389648 908.109009,1706.544312 910.087158,1697.507812 
	C914.815063,1704.576660 919.573547,1711.625122 924.260925,1718.720825 
	C927.879028,1724.197754 931.407837,1729.733643 935.466187,1735.717285 
	C939.373291,1742.201294 942.519958,1748.385498 946.257202,1754.189575 
	C958.795898,1773.662964 971.521729,1793.016235 984.251038,1812.366089 
	C985.505554,1814.273193 987.274963,1815.841675 989.352417,1817.996216 
	C991.192688,1821.820435 992.485962,1825.215820 993.893921,1829.298340 
z"/>
<path fill="#8DDFAA" opacity="1.000000" stroke="none" 
	d="
M909.968445,1696.843750 
	C908.109009,1706.544312 906.809814,1707.389648 898.048096,1708.111328 
	C893.026306,1708.525024 888.089905,1709.975708 882.567261,1711.484741 
	C880.445068,1709.499268 878.666443,1707.092285 877.329956,1704.460693 
	C869.698303,1689.434448 862.171997,1674.354736 854.267334,1658.672363 
	C839.576843,1626.436890 825.229065,1594.822021 811.315430,1562.399658 
	C817.916809,1558.997192 824.084045,1556.402100 830.251221,1553.807129 
	C832.009094,1556.184082 834.080322,1558.390991 835.476685,1560.963989 
	C850.248413,1588.182983 864.912659,1615.460205 879.986450,1643.314209 
	C890.194214,1661.331299 900.021973,1678.755493 909.968445,1696.843750 
z"/>
<path fill="#46CFBF" opacity="1.000000" stroke="none" 
	d="
M1544.652588,2215.687500 
	C1539.888184,2215.360107 1535.690186,2214.138184 1531.479736,2214.093262 
	C1511.592285,2213.880615 1491.701538,2213.990234 1470.890869,2213.485840 
	C1469.969971,2212.986816 1470.004517,2212.000000 1470.572266,2211.656006 
	C1481.810425,2200.823486 1492.709229,2190.554932 1503.096680,2179.793213 
	C1517.622314,2164.743652 1531.766357,2149.325439 1546.073730,2134.065186 
	C1555.436768,2123.938232 1564.799561,2113.811035 1574.163330,2103.684814 
	C1575.719849,2102.001709 1577.280518,2100.322754 1579.409546,2098.283691 
	C1580.778931,2103.903320 1584.268311,2106.174561 1590.180664,2106.053467 
	C1601.013672,2105.831543 1611.858032,2105.837402 1622.690430,2106.075928 
	C1627.234985,2106.175781 1631.761108,2107.111084 1637.105713,2107.830078 
	C1626.824341,2121.607422 1615.732910,2135.221436 1604.292236,2149.406494 
	C1593.954102,2161.334961 1584.055542,2172.773438 1573.949829,2184.026123 
	C1564.485107,2194.564941 1554.801025,2204.906738 1544.652588,2215.687500 
z"/>
<path fill="#9FE4A2" opacity="1.000000" stroke="none" 
	d="
M830.178833,1553.070068 
	C824.084045,1556.402100 817.916809,1558.997192 811.087891,1561.738525 
	C787.357300,1507.736694 767.181519,1452.511841 748.957214,1396.563232 
	C747.622681,1392.466431 746.648865,1388.251953 745.395020,1383.350098 
	C747.805298,1379.833740 750.327942,1377.059448 753.509338,1374.071777 
	C760.636353,1390.119629 767.104614,1406.381104 773.916748,1423.280273 
	C780.112122,1438.408081 785.541016,1453.086914 791.910095,1467.345581 
	C802.639832,1491.366699 813.959778,1515.124390 825.066833,1538.976440 
	C825.477478,1539.858276 826.258728,1540.567505 827.401978,1541.813965 
	C828.659912,1545.624756 829.383240,1548.978760 830.178833,1553.070068 
z"/>
<path fill="#46CFBF" opacity="1.000000" stroke="none" 
	d="
M1310.005981,2221.811768 
	C1307.427490,2227.084229 1302.853271,2228.061523 1297.507446,2228.028320 
	C1279.573486,2227.916992 1261.638306,2227.999756 1242.743408,2228.019531 
	C1233.143066,2218.877197 1224.365601,2209.848145 1215.899048,2200.536377 
	C1206.094849,2189.753906 1196.465820,2178.807373 1186.957886,2167.762207 
	C1182.444336,2162.519043 1178.388428,2156.881836 1173.948120,2150.755371 
	C1179.274048,2149.385254 1184.764648,2148.227051 1190.282837,2148.075195 
	C1201.769165,2147.758789 1213.272705,2148.114258 1224.763428,2147.895752 
	C1228.650146,2147.821777 1232.519653,2146.850830 1237.781006,2146.491699 
	C1244.544922,2152.543701 1249.873901,2158.441895 1255.315796,2164.233887 
	C1265.992065,2175.597412 1276.632324,2186.997803 1287.486816,2198.189697 
	C1292.788208,2203.656006 1298.537109,2208.688477 1304.378906,2214.466797 
	C1306.451416,2217.281738 1308.228638,2219.546631 1310.005981,2221.811768 
z"/>
<path fill="#66EEC2" opacity="1.000000" stroke="none" 
	d="
M1304.083496,2213.917236 
	C1298.537109,2208.688477 1292.788208,2203.656006 1287.486816,2198.189697 
	C1276.632324,2186.997803 1265.992065,2175.597412 1255.315796,2164.233887 
	C1249.873901,2158.441895 1244.544922,2152.543701 1238.604248,2146.332031 
	C1235.600098,2142.998047 1233.156494,2140.025879 1230.411133,2136.484863 
	C1235.365112,2132.714844 1241.019531,2131.895020 1247.181641,2131.904053 
	C1341.336548,2132.041748 1435.491943,2131.974365 1529.646973,2132.072754 
	C1534.572632,2132.077881 1539.497314,2133.139160 1545.248047,2133.886963 
	C1531.766357,2149.325439 1517.622314,2164.743652 1503.096680,2179.793213 
	C1492.709229,2190.554932 1481.810425,2200.823486 1469.751953,2211.493896 
	C1464.441528,2211.118164 1460.520142,2210.084961 1456.596313,2210.075439 
	C1410.094238,2209.962891 1363.591309,2209.899170 1317.090576,2210.173340 
	C1312.747681,2210.198975 1308.418823,2212.612549 1304.083496,2213.917236 
z"/>
<path fill="#58EDC6" opacity="1.000000" stroke="none" 
	d="
M1304.378906,2214.466797 
	C1308.418823,2212.612549 1312.747681,2210.198975 1317.090576,2210.173340 
	C1363.591309,2209.899170 1410.094238,2209.962891 1456.596313,2210.075439 
	C1460.520142,2210.084961 1464.441528,2211.118164 1469.184326,2211.837891 
	C1470.004517,2212.000000 1469.969971,2212.986816 1469.949219,2213.479980 
	C1460.542480,2222.430176 1451.118286,2230.845459 1441.779175,2239.354004 
	C1425.058960,2254.586914 1408.451538,2269.944336 1391.668213,2285.107178 
	C1385.326538,2290.836426 1383.984131,2290.581055 1377.527344,2284.546631 
	C1355.406494,2263.873291 1333.268188,2243.218750 1310.571289,2222.184326 
	C1308.228638,2219.546631 1306.451416,2217.281738 1304.378906,2214.466797 
z"/>
</svg>